<?xml version="1.0" standalone="no"?><svg xmlns:xlink="http://www.w3.org/1999/xlink" xmlns="http://www.w3.org/2000/svg" viewBox="0 0 1000 1400.0409223653128" preserveAspectRatio="xMaxYMax slice"><g transform="scale(3.1001791903572027)"><rect x="0" y="0" width="322.5714285714286" height="451.6" fill="#ffffff"/><path d="M 64.51 64.51 A 64.51 64.51 0 0 1  129.02 0 L 64.51 64.51 A 64.51 64.51 0 0 0 129.02 0" fill="#d8d4dd"/><rect x="193.54285714285714" y="0" width="64.51428571428572" height="64.51428571428572" fill="#ffffff"/><path d="M 225.8 64.52 A 32.26 32.26 0 0 1  258.06 32.26 L 225.8 64.52 A 32.26 32.26 0 0 0 258.06 32.26" fill="#988ca3"/><path d="M 193.54 64.51 A 64.51 64.51 0 0 1  258.05 129.02 L 193.54 64.51 A 64.51 64.51 0 0 0 258.05 129.02" fill="#a69bb0"/><path d="M 0 129.03 A 64.51 64.51 0 0 1  64.51 193.54000000000002 L 0 129.03 A 64.51 64.51 0 0 0 64.51 193.54000000000002" fill="#f082ff"/><path d="M 64.51 129.03 A 64.51 64.51 0 0 1  129.02 193.54000000000002 L 64.51 129.03 A 64.51 64.51 0 0 0 129.02 193.54000000000002" fill="#ec59ff"/><path d="M 193.54 193.54000000000002 A 64.51 64.51 0 0 1  258.05 129.03 L 193.54 193.54000000000002 A 64.51 64.51 0 0 0 258.05 129.03" fill="#fad8ff"/><path d="M 258.06 129.03 A 64.51 64.51 0 0 1  322.57 193.54000000000002 L 258.06 129.03 A 64.51 64.51 0 0 0 322.57 193.54000000000002" fill="#ec60ff"/><path d="M 193.54 193.54 A 64.51 64.51 0 0 1  258.05 258.05 L 193.54 193.54 A 64.51 64.51 0 0 0 258.05 258.05" fill="#e944ff"/><rect x="258.0571428571429" y="193.54285714285714" width="64.51428571428572" height="64.51428571428572" fill="#ffffff"/><path d="M 290.31 225.8 A 32.26 32.26 0 0 1  322.57 258.06 L 290.31 225.8 A 32.26 32.26 0 0 0 322.57 258.06" fill="#dca7ff"/><rect x="258.0571428571429" y="258.0571428571429" width="64.51428571428572" height="64.51428571428572" fill="#ffffff"/><path d="M 258.06 258.06 A 32.26 32.26 0 0 1  290.32 290.32 L 258.06 258.06 A 32.26 32.26 0 0 0 290.32 290.32" fill="#f0daff"/><rect x="0" y="322.5714285714286" width="64.51428571428572" height="64.51428571428572" fill="#ffffff"/><path d="M 0 322.57 A 32.26 32.26 0 0 1  32.26 354.83 L 0 322.57 A 32.26 32.26 0 0 0 32.26 354.83" fill="#f6b5ff"/><path d="M 0 354.83 A 32.26 32.26 0 0 1  32.26 387.09 L 0 354.83 A 32.26 32.26 0 0 0 32.26 387.09" fill="#fdfdfd"/><path d="M 64.51 322.57 A 64.51 64.51 0 0 1  129.02 387.08 L 64.51 322.57 A 64.51 64.51 0 0 0 129.02 387.08" fill="#efd8ff"/><path d="M 193.54 322.57 A 64.51 64.51 0 0 1  258.05 387.08 L 193.54 322.57 A 64.51 64.51 0 0 0 258.05 387.08" fill="#faf2ff"/><rect x="0" y="387.0857142857143" width="64.51428571428572" height="64.51428571428572" fill="#ffffff"/><path d="M 0 387.09 A 32.26 32.26 0 0 1  32.26 419.34999999999997 L 0 387.09 A 32.26 32.26 0 0 0 32.26 419.34999999999997" fill="#cbc5d0"/><path d="M 32.26 387.09 A 32.26 32.26 0 0 1  64.52 419.34999999999997 L 32.26 387.09 A 32.26 32.26 0 0 0 64.52 419.34999999999997" fill="#e9c7ff"/><path d="M 32.26 419.34 A 32.26 32.26 0 0 1  64.52 451.59999999999997 L 32.26 419.34 A 32.26 32.26 0 0 0 64.52 451.59999999999997" fill="#f1dcff"/><path d="M 258.06 451.59999999999997 A 64.51 64.51 0 0 1  322.57 387.09 L 258.06 451.59999999999997 A 64.51 64.51 0 0 0 322.57 387.09" fill="#daa4ff"/></g></svg>